<?xml version="1.0" encoding="utf-8"?>
<!-- Generator: Adobe Illustrator 23.0.1, SVG Export Plug-In . SVG Version: 6.00 Build 0)  -->
<svg version="1.1" id="Layer_1" xmlns="http://www.w3.org/2000/svg" xmlns:xlink="http://www.w3.org/1999/xlink" x="0px" y="0px"
	 viewBox="0 0 1391 152" style="enable-background:new 0 0 1391 152;" xml:space="preserve">
<style type="text/css">
	.st0{fill:#FFFFFF;}
</style>
<rect x="963.4" y="278.1" class="st0" width="500" height="500"/>
<image style="overflow:visible;enable-background:new    ;" width="1391" height="152" id="_48adb73357ccfa1f2f08b437414804dd" xlink:href="D89F144C.png"  transform="matrix(1 0 0 1 -3.0638 -1.5319)">
</image>
<image style="overflow:visible;enable-background:new    ;" width="502" height="152" xlink:href="D89F144D.png"  transform="matrix(1 0 0 1 962.1702 288.0638)">
</image>
<image style="overflow:visible;enable-background:new    ;" width="501" height="153" xlink:href="D89F144B.png"  transform="matrix(1 0 0 1 963.1702 455.5638)">
</image>
<image style="overflow:visible;enable-background:new    ;" width="330" height="153" xlink:href="D89F1454.png"  transform="matrix(1 0 0 1 1054.1702 621.0638)">
</image>
<image style="overflow:visible;enable-background:new    ;" width="502" height="152" xlink:href="D89F1457.png"  transform="matrix(1 0 0 1 378 288.0638)">
</image>
<image style="overflow:visible;enable-background:new    ;" width="501" height="153" xlink:href="D89F1455.png"  transform="matrix(1 0 0 1 379 455.5638)">
</image>
<image style="overflow:visible;enable-background:new    ;" width="330" height="153" xlink:href="D89F145B.png"  transform="matrix(1 0 0 1 470 621.0638)">
</image>
</svg>
